<?xml version="1.0" encoding="utf-8"?>
<!-- Generator: Adobe Illustrator 22.1.0, SVG Export Plug-In . SVG Version: 6.00 Build 0)  -->
<svg version="1.1" id="Camada_1" xmlns="http://www.w3.org/2000/svg" xmlns:xlink="http://www.w3.org/1999/xlink" x="0px" y="0px"
	 viewBox="0 0 113 110.3" style="enable-background:new 0 0 113 110.3;" xml:space="preserve">
<style type="text/css">
	.st0{fill:#FFFFFF;}
</style>
<g>
	<path class="st0" d="M29.8,79.1c0.1-0.1,0.3-0.2,0.3-0.3c1-4.7,3.8-8.5,6.5-12.3c5.1-7.3,11.6-13.4,17.8-19.7
		c0.7-0.7,1.4-1.5,2.2-2.4c2.1,2.2,4.1,4.2,6.1,6.2c5.2,5.3,10.2,10.8,14.7,16.7c1.3,1.7,2.4,3.6,3.4,5.5c1,1.9,1.7,3.9,2.7,6
		c0.1-1,0.3-1.8,0.4-2.7c0.4-4.7-0.6-9.1-2.6-13.3c-3.8-8.2-9.2-15.3-15.3-21.8c-0.9-0.9-1.8-1.9-2.8-3c1.8-1.5,3.5-2.9,5.3-4.3
		c2.7-2,5.5-3.7,8.7-5c2.2-0.9,4-0.3,5.6,1.3c5.2,5.4,8.4,11.8,9.6,19.2c3.3,19.4-9.7,37.9-29.1,41.4c-12.6,2.2-23.5-1.4-32.6-10.5
		C30.2,79.8,29.9,79.5,29.8,79.1C29.7,79.2,29.8,79.1,29.8,79.1z"/>
	<path class="st0" d="M29.7,79.2c-2.5-2.5-4.4-5.4-5.8-8.6c-6.2-14.3-4.3-27.4,5.6-39.4c2.5-3,4.6-3.3,8.5-1.8
		c3.8,1.5,8.7,5.1,11.8,8.7c-0.2,0.2-0.4,0.5-0.6,0.7c-5.7,6-10.8,12.5-14.8,19.8c-3.1,5.6-5,11.6-4.9,18.1
		C29.5,77.5,29.7,78.3,29.7,79.2C29.8,79.1,29.7,79.2,29.7,79.2z"/>
	<path class="st0" d="M37.5,24.5c10.3-7.1,26.9-7.5,38.1,0c-4.9-1-8.8,1.2-12.7,3.4c-2,1.1-3.9,2.5-5.7,3.8c-0.6,0.4-0.9,0.4-1.5,0
		c-3.5-2.6-7.1-5.1-11.3-6.7C42.3,24.2,40,23.7,37.5,24.5z"/>
</g>
</svg>
