<?xml version="1.0" encoding="utf-8"?>
<!-- Generator: Adobe Illustrator 22.1.0, SVG Export Plug-In . SVG Version: 6.00 Build 0)  -->
<svg version="1.1" id="Camada_1" xmlns="http://www.w3.org/2000/svg" xmlns:xlink="http://www.w3.org/1999/xlink" x="0px" y="0px"
	 viewBox="0 0 327.9 73.7" style="enable-background:new 0 0 327.9 73.7;" xml:space="preserve">
<style type="text/css">
	.st0{fill:#FFFFFF;}
	.st1{fill:#FE5A26;}
</style>
<g>
	<g>
		<path class="st0" d="M17.2,33.5h11.1L38.7,68H29l-3.9-16.8c-0.7-3.3-1.8-7.4-2.5-11h-0.2c-0.7,3.5-1.6,7.7-2.4,11L16.2,68H6.8
			L17.2,33.5z M14.3,53.6h16.8v7.1H14.3V53.6z"/>
		<path class="st0" d="M41.8,33.5h12.9c7.4,0,13.8,2.6,13.8,11.2c0,8.3-6.4,11.8-13.8,11.8h-3.7V68h-9.1V33.5z M54,49.2
			c3.6,0,5.5-1.6,5.5-4.6c0-3-1.9-3.9-5.5-3.9h-3.1v8.5H54z M59.2,48l11.2,20H60.2L53,54L59.2,48z"/>
		<path class="st0" d="M73.3,51c0-11.6,7.6-18.2,16.9-18.2c4.5,0,8.2,2.1,10.6,4.5l-5,5.6c-1.6-1.4-3.3-2.2-5.6-2.2
			c-4.3,0-7.6,3.7-7.6,10c0,6.5,3.3,10.1,8,10.1c2.2,0,4.1-1.2,5.6-2.8l5,5.5c-2.9,3.4-6.9,5.1-11.6,5.1C81,68.7,73.3,62.8,73.3,51z
			"/>
	</g>
	<g>
		<path class="st0" d="M176.4,33.5h11.8c11.8,0,20.1,4.9,20.1,17.1S200,68,188.9,68h-12.5V33.5z M187.7,60.7c5.3,0,9.5-2,9.5-10.1
			s-4.2-9.8-9.5-9.8h-0.4v19.9H187.7z"/>
		<path class="st0" d="M215.7,33.5h28v7.7h-17.1v5.4h14.6v7.7h-14.6v6.2h17.7V68h-28.6V33.5z"/>
		<path class="st0" d="M251.7,33.5h11.1l3.4,11.3l1.1,4.5h0.3l1.1-4.5l3.4-11.3h11.1V68h-9v-8.1c0-4.1,0.9-13.5,1.4-17.5h-0.2
			l-3.5,10.3l-2.2,6.3h-4.8l-2.3-6.3l-3.2-10.3h-0.3c0.5,4,1.4,13.5,1.4,17.5V68h-8.9V33.5z"/>
		<path class="st0" d="M288.6,50.6c0-11.7,6.8-17.8,16.9-17.8c10,0,16.9,6.1,16.9,17.8c0,12-6.8,18.1-16.9,18.1
			C295.4,68.7,288.6,62.6,288.6,50.6z M311.1,50.6c0-6.6-2.2-9.9-5.7-9.9c-3.5,0-5.7,3.3-5.7,9.9c0,6.9,2.2,10.2,5.7,10.2
			C309,60.8,311.1,57.5,311.1,50.6z"/>
	</g>
	<polygon class="st1" points="167.8,68 147.2,6.1 126.5,6.1 106.4,68 125.6,68 137.1,24.5 147.6,68 	"/>
</g>
</svg>
