<?xml version="1.0" encoding="utf-8"?>
<!-- Generator: Adobe Illustrator 22.1.0, SVG Export Plug-In . SVG Version: 6.00 Build 0)  -->
<svg version="1.1" id="Camada_1" xmlns="http://www.w3.org/2000/svg" xmlns:xlink="http://www.w3.org/1999/xlink" x="0px" y="0px"
	 viewBox="0 0 311 72.3" style="enable-background:new 0 0 311 72.3;" xml:space="preserve">
<style type="text/css">
	.st0{fill:#FFFFFF;}
</style>
<path class="st0" d="M48.8,71.1c-0.1-0.2-0.3-0.2-0.4-0.3c-4-1.3-8.1-2.6-12.1-3.8c-0.6-0.2-0.6-0.2-0.6-0.9c0-19.5,0-39.1,0-58.6
	c0-0.2,0-0.4,0-0.6c0.2,0,0.4,0,0.6,0c0.1,0.2,0.3,0.2,0.5,0.2c6.2,1.3,12.3,3.1,18.3,5.2c2.7,0.9,5.4,2.1,7.7,3.8
	c3.6,2.5,5.6,5.9,6.4,10.2c0.3,2,0.5,4.1,0.4,6.2c-0.1,2.4-0.4,4.8-1.5,7c-1.9,3.8-5.2,5.3-9.3,4.7c-1.3-0.2-2.5-0.6-3.8-1.1
	c-0.4-0.2-0.5-0.4-0.5-0.8c0-6.5,0-13.1,0-19.6c0-0.7,0-1.4-0.2-2.1c-0.3-1.4-1-2.5-2.5-2.9c-0.9-0.2-1.6,0-2.1,0.8
	c-0.5,0.8-0.6,1.6-0.6,2.5c0,0.9,0,1.9,0,2.8c0,15.6,0,31.2,0,46.8c0,0.2,0,0.4,0,0.7C49.1,71.1,49,71.1,48.8,71.1z"/>
<path class="st0" d="M4.6,55.5c0.2,0,0.2-0.1,0.2-0.2c0.4-0.8,1-1.4,1.7-1.9c2.1-1.4,4.4-2.4,6.7-3.2c6.5-2.3,12.9-4.6,19.4-6.9
	c0.1,0,0.2-0.1,0.3-0.1c0,0,0.1,0,0.1,0c0,2.4,0,4.8,0,7.3c0,0.4-0.2,0.6-0.5,0.7c-4.4,1.6-8.8,3.2-13.3,4.7
	c-0.6,0.2-1.3,0.5-1.8,0.9c-0.7,0.6-0.7,1.2,0.2,1.7c0.7,0.4,1.4,0.5,2.1,0.6c2.4,0.3,4.7,0,7-0.9c1.9-0.7,3.9-1.4,5.8-2.1
	C33,56,33,56,33,56.6c0,1.9,0,3.8,0,5.7c0,0.7,0,0.7-0.7,0.8c-3.2,0.6-6.4,0.8-9.7,0.6c-4-0.2-7.9-0.9-11.7-2.2
	c-1.5-0.5-2.9-1-4.2-1.8c-0.9-0.6-1.6-1.4-2-2.4c0-0.1-0.1-0.2-0.2-0.2C4.6,56.7,4.6,56.1,4.6,55.5z"/>
<path class="st0" d="M262.1,57.3c-7.1,0-14.2,0-21.3,0c-0.7,0-1.5,0-2.2-0.2c-0.1,0-0.3-0.1-0.4-0.1c-1.5-0.6-1.9-1.9-0.9-3.1
	c0.5-0.6,1.1-1.1,1.7-1.5c11.2-6.9,22.3-13.8,33.5-20.7c4.6-2.9,9.3-5.7,13.9-8.6c0.3-0.2,0.7-0.4,1-0.6c1.3-0.8,2.7-0.8,4.1-0.7
	c0.7,0.1,1.2,0.6,1.5,1.2c0.5,0.9,0.7,1.8,0.7,2.8c0,8.4,0,16.9,0,25.3c0,0.4,0,0.9,0,1.3c0,0.5,0.1,0.6,0.6,0.6c2.2,0,4.5,0,6.7,0
	c1.4,0,1.2-0.1,1.2,1.2c0,0.8,0,1.6,0,2.4c0,0.6,0,0.6-0.6,0.6c-2.2,0-4.5,0-6.7,0c-0.2,0-0.4,0-0.5,0c-0.5,0-0.6,0.1-0.6,0.6
	c0,1,0,2,0,3c0,0.6,0,0.6-0.6,0.6c-2.4,0-4.9,0-7.3,0c-0.6,0-0.6,0-0.6-0.6c0-1,0-2,0-3c0-0.6,0-0.6-0.6-0.6c-3.3,0-6.7,0-10,0
	C270.5,57.3,266.3,57.3,262.1,57.3z M266.2,53.1c6.1,0,12.2,0,18.3,0c0.8,0,0.8,0,0.8-0.8c0-7.3,0-14.7,0-22c0-0.1,0-0.3,0-0.4
	c0-0.4-0.3-0.5-0.7-0.4c-0.1,0.1-0.2,0.1-0.3,0.2c-12.2,7.5-24.4,15.1-36.6,22.6c-0.1,0.1-0.2,0.1-0.3,0.2c-0.1,0.1-0.3,0.2-0.2,0.4
	c0.1,0.2,0.2,0.2,0.4,0.2c0.2,0,0.4,0,0.6,0C254.2,53.1,260.2,53.1,266.2,53.1z"/>
<path class="st0" d="M141.1,21.8c7.9,0,15.8,0,23.7,0c5.1,0,9.1,3.5,9.8,8.5c0.3,2.5,0.1,4.9-0.9,7.2c-1.4,3-3.9,4.6-7,5.3
	c-1.1,0.2-2.2,0.3-3.4,0.3c-10.9,0-21.8,0-32.6,0c-4,0-5.5,2.8-5.8,5.4c-0.1,1.1-0.1,2.2-0.1,3.3c0,3,0,6,0,9c0,0.7,0,0.8-0.7,0.8
	c-2.4,0-4.8,0-7.1,0c-0.6,0-0.6-0.1-0.6-0.6c0-3.8,0-7.7,0-11.5c0-3,0.9-5.7,3.1-7.9c1.6-1.6,3.5-2.5,5.8-2.6c0.9,0,1.8-0.1,2.7-0.1
	c10.9,0,21.9,0,32.8,0c3,0,4.8-1.4,5.4-4.3c0.4-1.6,0.3-3.2-0.1-4.8c-0.7-2.5-2.5-3.8-5.1-3.8c-14.5,0-29,0-43.6,0c-1,0-1,0-1-1
	c0-0.9,0-1.7,0-2.6c0-0.4,0.1-0.5,0.5-0.5c0.1,0,0.3,0,0.4,0C125.1,21.9,133.1,21.9,141.1,21.8C141.1,21.9,141.1,21.9,141.1,21.8z"
	/>
<path class="st0" d="M187.6,61.6c-4.6,0-9.3,0-13.9,0c-0.8,0-0.8,0-0.8-0.8c0-0.9,0-1.8,0-2.7c0-0.7,0-0.7,0.7-0.7
	c7.9,0,15.7,0,23.6,0c0.7,0,1.3,0,2-0.2c2-0.5,3.1-1.8,3.6-3.7c0.3-1,0.4-1.9,0.4-2.9c0-6.3-0.1-12.7,0-19c0.1-4.6,2.7-8,7.1-9.3
	c1-0.3,2-0.4,3-0.4c8.7,0,17.5,0,26.2,0c0.2,0,0.4,0,0.5,0c0.6,0,0.6,0,0.6,0.6c0,0.9,0,1.8,0,2.7c0,0.7,0,0.7-0.7,0.7
	c-7.6,0-15.1,0-22.7,0c-0.5,0-1,0-1.5,0.1c-2.3,0.5-3.5,2.1-3.9,4.3c-0.2,0.8-0.2,1.6-0.2,2.4c0,6,0,11.9,0,17.9
	c0,1.7-0.2,3.4-0.9,5c-1.5,3.3-4.1,5.1-7.6,5.7c-0.9,0.2-1.8,0.2-2.7,0.2C196.1,61.6,191.8,61.6,187.6,61.6z"/>
<path class="st0" d="M51.8,53.3c0-1.2,0-2.4,0-3.5c0-0.3,0.1-0.5,0.4-0.6c3.2-1.1,6.5-1.8,9.8-2.2c1.4-0.2,2.7-0.2,4.1-0.3
	c5.3-0.1,10.4,0.6,15.3,2.4c1.5,0.5,3,1.1,4.3,2c0.4,0.3,0.9,0.7,1.2,1.1c1.1,1.4,1,2.9-0.2,4.2c-1.2,1.3-2.7,2.1-4.3,2.8
	c-2.3,1-4.8,1.8-7.2,2.6c-7.7,2.8-15.3,5.5-23,8.3c-0.5,0.2-0.5,0.2-0.5-0.4c0-2.2,0-4.5,0-6.7c0-0.4,0.1-0.6,0.5-0.8
	c6.8-2.4,13.6-4.9,20.5-7.3c0.4-0.1,0.8-0.3,1.2-0.5c0.4-0.2,0.8-0.4,1.2-0.7c0.7-0.6,0.7-1.2-0.2-1.7c-1-0.5-2-0.6-3.1-0.7
	c-2.3-0.1-4.6,0.4-6.8,1.2c-4.3,1.5-8.6,3-12.8,4.5c-0.6,0.2-0.6,0.2-0.6-0.4C51.8,55.6,51.8,54.4,51.8,53.3
	C51.8,53.3,51.8,53.3,51.8,53.3z"/>
<path class="st0" d="M33,43.3c0,0-0.1,0-0.1,0C33,43.2,33,43.2,33,43.3z"/>
</svg>
