<?xml version="1.0" encoding="utf-8"?>
<!-- Generator: Adobe Illustrator 22.1.0, SVG Export Plug-In . SVG Version: 6.00 Build 0)  -->
<svg version="1.1" id="Camada_1" xmlns="http://www.w3.org/2000/svg" xmlns:xlink="http://www.w3.org/1999/xlink" x="0px" y="0px"
	 viewBox="0 0 113 110.3" style="enable-background:new 0 0 113 110.3;" xml:space="preserve">
<style type="text/css">
	.st0{fill:#FFFFFF;}
</style>
<g>
	<path class="st0" d="M63.7,12.4c6.2,0.1,12.4-0.1,18.4,0.5c7.9,0.8,15.1,7.9,16.6,15.7c0.4,1.9,0.6,3.9,0.6,5.8
		c0.1,14.3,0.1,28.7,0,43c-0.1,9.4-7.7,18.4-17,19.9c-3.5,0.6-7,0.5-10.6,0.7c-2.7,0.1-5.4,0-8.2,0C63.7,69.5,63.7,41.1,63.7,12.4z
		 M80.6,68c4.9,0,8.6-3.7,8.6-8.4c0-4.7-3.8-8.6-8.3-8.5c-4.8,0.1-8.6,3.8-8.6,8.5C72.3,64.1,76.1,68,80.6,68z"/>
	<path class="st0" d="M55,12.3c0,0.5,0,0.9,0,1.3c0,27.5,0,55,0,82.5c0,1.8-0.1,1.9-1.9,1.9c-6.2,0-12.4-0.1-18.6-0.1
		c-5.6,0-10.2-2.1-14.2-5.9c-4.4-4.1-6.6-9.3-6.7-15.3c-0.1-14.6-0.2-29.1,0-43.7c0.1-8.2,5.3-15.8,13.6-19.1c2.6-1,5.3-1.5,8.2-1.5
		c6.2,0,12.4,0,18.6,0C54.3,12.3,54.6,12.3,55,12.3z M47.7,91c0-24.1,0-48,0-71.9c-4.1,0-8.2,0-12.3,0c-8.5,0-15,6.5-15.1,15
		c0,10.4,0,20.9,0,31.3c0,4.3,0,8.6,0.2,12.8c0.3,5.5,4.6,10.6,9.9,12c1.9,0.5,4,0.7,6,0.7C40.2,91.1,44,91,47.7,91z"/>
	<path class="st0" d="M34.8,29.9c4.5,0,8.1,3.6,8.1,8c0,4.5-3.7,8.1-8.2,8.1c-4.5,0-8.1-3.6-8.1-8.1C26.6,33.3,30.1,29.9,34.8,29.9z
		"/>
</g>
</svg>
