<?xml version="1.0" encoding="utf-8"?>
<!-- Generator: Adobe Illustrator 22.1.0, SVG Export Plug-In . SVG Version: 6.00 Build 0)  -->
<svg version="1.1" id="Camada_1" xmlns="http://www.w3.org/2000/svg" xmlns:xlink="http://www.w3.org/1999/xlink" x="0px" y="0px"
	 viewBox="0 0 250 350" style="enable-background:new 0 0 250 350;" xml:space="preserve">
<style type="text/css">
	.st0{fill:url(#SVGID_1_);}
	.st1{fill:#FFFFFF;}
</style>
<radialGradient id="SVGID_1_" cx="125" cy="175" r="197.0003" gradientUnits="userSpaceOnUse">
	<stop  offset="0" style="stop-color:#BF0811"/>
	<stop  offset="1" style="stop-color:#821D20"/>
</radialGradient>
<rect class="st0" width="250" height="350"/>
<g>
	<path class="st1" d="M221.9,212c-0.9-2.7-1.9-5.5-2.9-8.4c-2.2,2.1-4.3,4-6.3,5.9c-0.1-0.1-0.3-0.1-0.4-0.2
		c3.9-14.7,8-29.4,4.8-44.8c-0.2-0.1-0.4-0.2-0.6-0.3c-1.4,1.7-2.9,3.4-4.2,5.3c-1,1.5-2,3-2.6,4.7c-2.7,6.7-7.2,12-12.7,16.5
		c-7.3,5.9-14.7,11.6-23.1,15.8c-5.9,2.9-12.2,4.6-18.9,3.6c-8.1-1.2-13.6-6.3-16.9-13.4c-6.9-14.8-10.3-30.3-8.6-46.8
		c0.6-5.8,2.4-11.3,4.4-16.7c1.6-4.1,1-7.7-1.2-11.6c-4.3-7.5-8.1-15.4-12.1-23c-1.6-3-3.5-6-5.4-8.8c-1.2,3.1-1.3,6.3-0.7,9.3
		c0.8,3.7,1.7,7.4,3.2,10.8c2.2,5.2,3.6,10.4,3.5,16c-0.2,10.4-0.5,20.7-3.2,30.8c-1.2,4.6-2.9,8.9-5.8,12.8
		c-5.2,6.9-12.1,9.5-20.5,8.7c-6.9-0.6-13.3-3-19.3-6.4c-7.3-4.1-14.3-8.6-21.2-13.4c-6.2-4.3-10.8-10-12.6-17.6
		c-0.6-2.7-1.7-5.3-4.2-7.4c-0.6,8,0.7,15.3,4.5,22.1c3.8,6.8,9.7,11.4,16.6,14.9c-0.1,0.1-0.1,0.3-0.2,0.4c-2.7,0-5.5,0-8.6,0
		c2.5,3.3,4.8,6.3,7,9.3c-3.3-0.1-5.9-1.5-8.4-3.3c-9.2-6.5-14.2-15.7-16.2-26.6c-1.4-7.1-1.2-14.3-0.2-21.5
		c0.3-2.1-0.3-3.7-1.7-5.1c-4.4-4.7-6.2-10.5-7-16.7c-1-7.5,3.1-13.5,10.5-15.2c7.2-1.7,14.5-3.1,21.7-4.9c5.5-1.3,10.2-4.4,14.5-8
		C72,74.9,76.9,70,83.1,66.8c8.3-4.3,16.4-3.3,24,1.4c2.2,1.4,3.9,4,5.3,6.3c7.3,12.1,14.4,24.3,21.6,36.5c1.3,2.2,2.7,4.3,4.1,6.6
		c1.7-3.3,3.1-6.4,5-9.2c1.9-2.9,4-5.7,6.3-8.2c3.7-3.9,9.6-4.3,14.3-1.1c4.6,3.1,9.1,6.2,13.5,9.5c7.5,5.7,16,8.8,25.3,9.8
		c4.4,0.4,8.7,1.2,13,2.1c10.9,2.3,16.2,12.7,15.5,22.3c-0.4,4.9-2.2,9.2-5.4,12.8c-3,3.4-3.8,6.7-2.9,11.4
		c1.9,9.7,2.1,19.7,1.5,29.7c-0.3,4.6-1,9.1-1.6,13.6c-0.1,0.6-0.4,1.2-0.6,1.9C222.1,212.1,222,212.1,221.9,212z M111.5,90.1
		C111.5,90.1,111.4,90.1,111.5,90.1c-0.1-1.1,0-2.1-0.1-3.2c-0.7-7.3-3.7-13.3-10.5-16.7c-6-3.1-12-2-17.5,1.4
		c-5.6,3.5-11,7.2-16.2,11.1c-8.2,6.1-17.3,10-27.5,11.3c-3.9,0.5-7.8,1.5-11.5,2.7c-3.1,1-4.7,3.5-5,6.8c-0.4,4.1,0.4,8,1.9,11.8
		c2.1,5.2,5.4,9.6,9.3,13.6c2.9,2.9,5.1,6.3,6.1,10.3c1.7,7.1,5.5,12.9,11.5,17c5.1,3.6,10.4,6.9,15.9,9.9c6.9,3.7,14,7.1,21.9,8.6
		c8.1,1.5,15.1-0.3,20.2-7c3.4-4.5,5.4-9.7,6.5-15.3c1.8-9.1,1.6-18.2,1.6-27.4c0-5.6-1.3-10.7-3.9-15.5c-2.5-4.6-3.4-9.4-2.8-14.6
		C111.3,93.3,111.4,91.7,111.5,90.1z M184.4,177.5c-17,7.6-28.8,0.4-38.7-13.1c-0.2,0.5-0.3,0.8-0.3,1.1c-0.1,0.4-0.1,0.7-0.1,1.1
		c-0.6,7.2,0.9,14,4.1,20.5c2.9,6,7.9,8.1,13.4,7.7c5.4-0.4,10.2-2.5,14.5-5.7C181.1,186.2,183.5,182.4,184.4,177.5z M185.3,144.8
		c3.3,1.5,6.5,3.1,9.8,4.6c3.2,1.5,6.4,2.9,9.7,4.2c0.7,0.3,1.6-0.1,2.4-0.2c-0.2-0.8-0.1-1.6-0.5-2.2c-3.1-4.7-7.1-8.3-12.5-10
		C190.4,139.9,187.4,141.2,185.3,144.8z M168.7,138.3c2.5-3.4,2-6.6-1.7-8.5c-5.4-2.8-11.1-3-16.9-1.2c-0.5,0.1-0.9,0.5-1.3,0.8
		c0,0.2-0.1,0.5-0.1,0.7C155.3,132.8,162,135.6,168.7,138.3z"/>
	<path class="st1" d="M76.6,162.3c-3.1-5-2.6-11.4,1.4-15.5c6.3-6.4,18.3-8,25.5-3.3c2.7,1.8,4.3,4.3,5.3,7.8
		c-6.2-3-12.4-4.1-18.9-2C83.2,151.4,78.9,155.9,76.6,162.3z"/>
	<path class="st1" d="M80.2,102.5c7.2-1.1,13.6-3.4,19.9-7c0,0.6,0.1,1,0,1.4c-1.2,4.2-3.4,7.7-6.7,10.4c-4.9,3.9-8.6,1.9-11.7-2.2
		C81,104.5,80.7,103.6,80.2,102.5z"/>
	<path class="st1" d="M43.4,120.6c7-2.1,13-5.4,18.7-9.4c3,5.6,1.1,10.3-4.1,11.5c-4.4,1.1-8.6,0.6-12.7-1
		C44.7,121.5,44.2,121.1,43.4,120.6z"/>
</g>
<g>
	<path class="st1" d="M54.3,268.2c0,0-0.8-0.5-2.5-1.4s-2.9-2.3-3.8-4.1c-0.9-1.8-1.4-3.8-1.4-6.2v-8.6c0-2.3,0.5-4.4,1.4-6.2
		c0.9-1.8,2.2-3.1,3.8-4.1s3.6-1.5,5.7-1.5c1.8,0,3.5,0.4,5,1.2s2.8,1.9,3.8,3.3s1.7,3.1,2.1,4.9h-4.5c-0.3-1-0.7-1.9-1.4-2.6
		s-1.4-1.4-2.3-1.8c-0.9-0.4-1.8-0.6-2.7-0.6c-1.3,0-2.4,0.3-3.4,0.9c-1,0.6-1.7,1.5-2.3,2.6s-0.8,2.4-0.8,3.9v8.6
		c0,1.5,0.3,2.8,0.8,3.9s1.3,2,2.3,2.6c1,0.6,2.1,0.9,3.4,0.9c0.9,0,1.8-0.2,2.7-0.6c0.9-0.4,1.6-1,2.3-1.7s1.1-1.7,1.4-2.7h4.5
		c-0.4,1.9-1.1,3.5-2.1,4.9s-2.3,2.5-3.8,3.3c-1.5,0.8-3.2,1.2-5,1.2C55.4,268.2,54.3,268.2,54.3,268.2z"/>
	<path class="st1" d="M79.3,266.8c-1.7-1-3-2.3-3.9-4.1c-0.9-1.8-1.4-3.8-1.4-6.1v-8.9c0-2.3,0.5-4.3,1.4-6.1
		c0.9-1.8,2.2-3.1,3.9-4.1c1.7-1,3.6-1.4,5.8-1.4s4.1,0.5,5.8,1.4c1.7,1,3,2.3,3.9,4.1c0.9,1.8,1.4,3.8,1.4,6.1v8.9
		c0,2.3-0.5,4.3-1.4,6.1c-0.9,1.8-2.2,3.1-3.9,4.1c-1.7,1-3.6,1.4-5.8,1.4S81,267.7,79.3,266.8z M88.5,263c1-0.6,1.8-1.4,2.3-2.5
		c0.5-1.1,0.8-2.3,0.8-3.7v-9.2c0-1.4-0.3-2.7-0.8-3.7c-0.5-1.1-1.3-1.9-2.3-2.5c-1-0.6-2.1-0.9-3.4-0.9s-2.4,0.3-3.4,0.9
		c-1,0.6-1.8,1.4-2.3,2.5c-0.5,1.1-0.8,2.3-0.8,3.7v9.2c0,1.4,0.3,2.7,0.8,3.7c0.5,1.1,1.3,1.9,2.3,2.5c1,0.6,2.1,0.9,3.4,0.9
		S87.5,263.6,88.5,263z"/>
	<path class="st1" d="M125.9,236.4h4.1v31.5h-4.3v-23.6l0.2,1.4l-7.7,17.8h-3.1l-7.7-17.4l0.2-1.8v23.6h-4.3v-31.5h4.1l9.2,20.8
		L125.9,236.4z"/>
	<path class="st1" d="M137.8,236.4h4.4v31.5h-4.4V236.4z M140,236.4H158v4.2H140V236.4z M140,250.1h15.7v4.2H140V250.1z M140,263.7
		H158v4.2H140V263.7z"/>
	<path class="st1" d="M164.3,236.4h4.4v31.5h-4.4V236.4z M167.3,263.7h7.1c2.3,0,4.1-0.6,5.4-1.8c1.3-1.2,1.9-2.9,1.9-5.1v-9.3
		c0-2.2-0.6-3.9-1.9-5.1c-1.3-1.2-3.1-1.8-5.4-1.8h-7.1v-4.2h7c2.5,0,4.7,0.4,6.5,1.3c1.8,0.9,3.2,2.2,4.1,3.9
		c0.9,1.7,1.4,3.7,1.4,6.1v8.9c0,2.4-0.5,4.4-1.4,6.1c-0.9,1.7-2.3,3-4.1,3.9c-1.8,0.9-4,1.3-6.5,1.3h-7V263.7z"/>
	<path class="st1" d="M202.4,255.1v12.8H198v-12.8l-9.6-18.7h4.9l6.9,14.2l6.9-14.2h4.9L202.4,255.1z"/>
</g>
</svg>
