<svg xmlns="http://www.w3.org/2000/svg" viewBox="0 0 494.39 387.07"><defs><style>.cls-1{fill:#fff;}.cls-2,.cls-3,.cls-4,.cls-5{fill:none;}.cls-2{stroke:#000;}.cls-2,.cls-3,.cls-5{stroke-miterlimit:10;}.cls-3,.cls-5{stroke:#fff;}.cls-5{stroke-width:4px;}</style></defs><title>Ativo 2</title><g id="Camada_2" data-name="Camada 2"><g id="Camada_1-2" data-name="Camada 1"><polygon class="cls-1" points="224.78 48.51 212.77 93.14 238.7 86.31 238.72 86.31 250.73 41.63 224.78 48.51"/><polygon class="cls-1" points="281.46 33.47 269.41 78.25 294.46 71.66 306.52 26.84 281.46 33.47"/><path class="cls-1" d="M94.87,83c19.8,9,37.65,18.2,47.62,28.66l39.57-10.4,12-44.56Z"/><path class="cls-1" d="M417,33.27,407.73,0,394.31,3.56l-12.12,45,27.08-7.12C414.81,39.34,419.24,37,417,33.27Z"/><polygon class="cls-1" points="337.24 18.7 325.17 63.59 351.48 56.67 363.58 11.71 337.24 18.7"/><path class="cls-1" d="M161.39,126.28c15.37,21.38,18.05,39.13,0,44H427.53v-44Zm40,42.82-24.16-41.86h31.92l24.18,41.86Zm60.6,0-24.16-41.86h31.94L294,169.1Zm59,0-24.17-41.86h31.94L353,169.1Zm90.75,0H380l-24.17-41.86h31.94L411.93,169Z"/><rect class="cls-1" x="62.23" y="176.78" width="360.6" height="35.71"/><path class="cls-1" d="M168.33,153.12a19.38,19.38,0,0,1-14,17.56,15.1,15.1,0,0,1-2,.46,13.62,13.62,0,0,1-2,.27l-1,.07-1,0-1.92,0c-5.13.11-10.25.23-15.38.28s-10.25.14-15.37.16q-15.37.16-30.75-.19L54.17,171l-.78,0v-.74c.06-3.57.13-7.14.13-10.71s0-7.13,0-10.7q0-10.71-.3-21.41L52.75,106c-.18-7.14-.29-14.27-.38-21.41l0-2,2,.21a247.74,247.74,0,0,1,34.76,5.83A167.62,167.62,0,0,1,106,93.92a135.83,135.83,0,0,1,16.16,7.36,103.11,103.11,0,0,1,27.87,21.8,101,101,0,0,1,10.51,14.22A103.13,103.13,0,0,1,168.33,153.12Zm-.4.06a118.81,118.81,0,0,0-8.87-14.91A98.48,98.48,0,0,0,148,125a108,108,0,0,0-27.73-20.14,130.8,130.8,0,0,0-15.78-6.89,170.82,170.82,0,0,0-16.47-5.16A246.42,246.42,0,0,0,54,86.39l2-1.78c-.09,7.14-.2,14.27-.38,21.41l-.5,21.41c-.17,7.14-.28,14.27-.29,21.41,0,3.57,0,7.13,0,10.7s.07,7.14.13,10.71l-.76-.76,30.74-.79q15.38-.37,30.75-.2,7.68,0,15.37.16c5.13.06,10.25.17,15.38.29a28.19,28.19,0,0,0,7.35-.4,18.13,18.13,0,0,0,6.59-3,19.11,19.11,0,0,0,5-5.41A19.48,19.48,0,0,0,167.93,153.18Z"/><path class="cls-2" d="M168.22,153.35l-.09-.2"/><circle class="cls-3" cx="78.49" cy="149" r="6.66"/><circle class="cls-3" cx="78.49" cy="109.12" r="6.66"/><circle class="cls-3" cx="143.2" cy="149" r="6.66"/><path class="cls-1" d="M154.27,144.13a22.31,22.31,0,0,0-3-5.73,44.19,44.19,0,0,0-4.29-4.88,92.6,92.6,0,0,0-9.87-8.45A201.62,201.62,0,0,0,115.19,111c-3.77-2.16-7.63-4.17-11.52-6.12S95.85,101,91.86,99.31s-8-3.31-12.18-4.66A48.91,48.91,0,0,0,67,91.91a44.78,44.78,0,0,1,13,1.8,119.49,119.49,0,0,1,12.49,4.16,189.6,189.6,0,0,1,23.72,11.34A162.54,162.54,0,0,1,138,123.85a81.13,81.13,0,0,1,9.62,9,43.26,43.26,0,0,1,4,5.24A20,20,0,0,1,154.27,144.13Z"/><path class="cls-1" d="M60.57,91.9c.2,5.38.3,10.76.38,16.13s.07,10.76.12,16.13,0,10.76-.12,16.13l-.14,8.07c-.08,2.69-.13,5.37-.24,8.06-.12-2.69-.17-5.37-.25-8.06l-.14-8.07c-.08-5.37-.07-10.75-.11-16.13s0-10.75.11-16.13S60.36,97.28,60.57,91.9Z"/><path class="cls-4" d="M202.84,364.12a5,5,0,0,0-3.73,1.57,5.42,5.42,0,0,0,0,7.55,5,5,0,0,0,3.73,1.59,5,5,0,0,0,3.73-1.57,5.42,5.42,0,0,0,0-7.57A5,5,0,0,0,202.84,364.12Z"/><rect class="cls-4" x="400.18" y="258.96" width="9.22" height="3.84"/><rect class="cls-4" x="414.31" y="367.25" width="5.03" height="5.03"/><path class="cls-4" d="M210.47,311.19v-3.08h-7.29v3.08Z"/><path class="cls-4" d="M74.14,313.11v-3.46H72a14.4,14.4,0,0,1,1.35,3.46Z"/><path class="cls-4" d="M222.55,358.89a8.73,8.73,0,0,1,2.16.36l1.36.36c.14,0,.27-.16.39-.47s.4-1.23.82-2.74a22.65,22.65,0,0,0,.68-2.65c0-.2-.2-.4-.59-.61a11.69,11.69,0,0,0-5.88-1.43,10.83,10.83,0,0,0-8.14,3.35,12.27,12.27,0,0,0,0,16.56,10.87,10.87,0,0,0,8.15,3.32,17.37,17.37,0,0,0,3.48-.47c1.86-.41,2.79-.89,2.79-1.46a23.49,23.49,0,0,0-.52-3.46c-.41-1.9-.73-2.85-1-2.85a9.43,9.43,0,0,1-1.17.51,6,6,0,0,1-2.22.5,4.85,4.85,0,0,1-3.39-1.18,4.13,4.13,0,0,1-1.3-3.24,4.36,4.36,0,0,1,1.19-3.2A4.28,4.28,0,0,1,222.55,358.89Z"/><rect class="cls-4" x="74.14" y="372.29" width="1.92" height="4.19"/><path class="cls-4" d="M115,313.11h1.81v-5h-4.68c.7,1.55,2,3.07,2.73,4.66C114.86,312.88,114.9,313,115,313.11Z"/><path class="cls-4" d="M52.16,270.58c-2.83-7.83-10.64-9.33-16.27-3.18-7.3,8-9.17,28.52-3.44,37.78,5.17,8.35,13.78,9.9,21.53,3.48,3.28-2.71,5.89-6.22,9.31-9.91.15.19.32.37.48.56V276.5L54.42,278C53.6,275.3,53,272.89,52.16,270.58Z"/><rect class="cls-4" x="394.03" y="308.11" width="10.75" height="3.26"/><path class="cls-4" d="M443.43,258.1l-6.14,22.45,13.71,2.2c-2.18-8.93-4.08-16.75-6-24.57Z"/><path class="cls-4" d="M290.52,357.88a5.14,5.14,0,0,0-2.11-4.42,7.9,7.9,0,0,0-4.83-1.37,8.62,8.62,0,0,0-4.06,1.1,9.56,9.56,0,0,0-3.28,2.71,4.78,4.78,0,0,0-2.35-2.89,7.27,7.27,0,0,0-3.69-.92,8.43,8.43,0,0,0-3.74.83,21.3,21.3,0,0,0-3.19,2.15,2.44,2.44,0,0,1-.52.32q-.15,0-.18-1.56t-.45-1.56a6.7,6.7,0,0,0-1.77.31c-1,.29-1.62.44-1.77.47s-.88.1-2,.2a7.69,7.69,0,0,0-1.86.34.51.51,0,0,0-.32.52,2.83,2.83,0,0,0,0,.4,71.63,71.63,0,0,1,.53,8.29c0,1.19,0,3,0,5.37s0,4.18,0,5.38a1.24,1.24,0,0,0,.1.67c.07.08.28.13.64.16,1.2.09,2.27.13,3.21.13,1.45,0,2.51,0,3.19-.09a1.25,1.25,0,0,0,.69-.18,1.09,1.09,0,0,0,.14-.69q0-2,0-6.08t0-6.11c0-.61.42-1.2,1.26-1.75a3.9,3.9,0,0,1,2.13-.76c1.63,0,2.45,1.06,2.45,3.2,0,.57,0,1.42.05,2.54s0,2,0,2.51c0,.72,0,1.79-.07,3.19s-.06,2.47-.06,3.17.2.92.62.92h6.81c.43,0,.65-.25.65-.74,0-.72,0-1.79-.07-3.22s-.07-2.5-.07-3.2q0-4.59.09-5.52a3,3,0,0,1,1.16-2,3.22,3.22,0,0,1,2.1-.88c1.6,0,2.44.88,2.53,2.67.06,1.1.09,3,.09,5.58q0,1-.06,3.09c-.05,1.37-.07,2.4-.07,3.09s.22,1,.67,1.1a25,25,0,0,0,3.42.13c1.76,0,2.87,0,3.32-.09s.67-.35.67-.87c0-.94,0-2.36-.07-4.25s-.06-3.32-.06-4.26,0-2,.06-3.58S290.52,358.67,290.52,357.88Z"/><path class="cls-4" d="M424.45,260.12c.41-1.63-1-3.65-1.26-5.53l-.36-2.61v14.41Q423.66,263.26,424.45,260.12Z"/><path class="cls-4" d="M240.57,351.91a10.81,10.81,0,0,0-8.26,3.24,11.86,11.86,0,0,0-3.05,8.45,10.82,10.82,0,0,0,3.19,8.08,12.13,12.13,0,0,0,16.35,0,12.5,12.5,0,0,0,0-16.56A11.09,11.09,0,0,0,240.57,351.91Zm2.94,14.55a3.73,3.73,0,0,1-5.81,0,4.75,4.75,0,0,1-1.08-3.13,4.68,4.68,0,0,1,1.08-3.09,3.61,3.61,0,0,1,2.92-1.39,3.52,3.52,0,0,1,2.85,1.35,4.86,4.86,0,0,1,1.1,3.13A4.78,4.78,0,0,1,243.51,366.46Z"/><path class="cls-1" d="M240.62,358.85a3.61,3.61,0,0,0-2.92,1.39,4.68,4.68,0,0,0-1.08,3.09,4.75,4.75,0,0,0,1.08,3.13,3.73,3.73,0,0,0,5.81,0,4.78,4.78,0,0,0,1.06-3.13,4.86,4.86,0,0,0-1.1-3.13A3.52,3.52,0,0,0,240.62,358.85Z"/><path class="cls-1" d="M403,314.08c6.33,1.38,8.08-2,9.37-7.47,3.17-13.53,7-26.92,10.49-40.38V251.82c-.64-4.79-.32-7.55-1.12-13.85.7.15,0,0,.67.16l1-3.85-.52-18.75h-6.14v31H412v-31H249.67v.59c4.92.19,9.85.37,14.78.5,5.83.15,11.66,0,18,0,.63,13,1.19,24.8,1.77,36.89l-6.8,1.52-.58-.58-11.09-2c-3.13-15-3.32-15.1-18-13.52v21.66h21c0,6.86.33,12.94-.23,18.93-.14,1.49-3.05,3.68-4.87,3.88-5,.53-10.13.18-15.89.18v25.72h15.83c1-4.83.53-12.53,3.15-13.77,4.75-2.25,11.32-.64,17.53-.64-.74,12.6-1.45,24.61-2.23,37.85H268.38c-14.84,0-29.68-.2-44.51.11-5.73.12-8.83-1.21-7.94-7.6a32.17,32.17,0,0,0,0-7.66c-.53-5,.49-8.62,6.77-8V239.7l-6.23-1.29c-.94-2.76-1.72-5-2.49-7.34a6.62,6.62,0,0,0,1.15-1.94c.7-4.12,0-10.69,2.2-11.87,4-2.13,9.7-1,14.68-1.34a15.4,15.4,0,0,0,2.32-.39H161.43v17.05c8,17.09,22,50.81,23.19,52.49a393.59,393.59,0,0,0-1-43c-8.56-2.88-9.43-5.66-7.22-22.89l31.17-2.28c.6,6.79,1.15,13,1.7,19.17-6.29,4.67-6.3,11.29-6.22,18.28.2,17.88.19,35.76.19,53.64h7.29V311h-7.29q0,6.51,0,13c0,2.51,0,5,0,8.72-7.67,0-14.74.26-21.76-.2-1.6-.11-3.55-2.47-4.44-4.24-7.41-14.81-14.59-29.75-21.89-44.62-1.29-2.64-2.84-5.16-4.71-8.53v35.7l7.82,1v20.24H125c-.88-3.48-1.72-6.76-2.55-10h0l2.21-9.1,5-1c0-20.94.13-41.57-.2-62.2,0-2-2.89-4-5.94-5.16V225.49c9.72-1.38,19.43-3,29.2-3.92,1.6-.15,4.09,2,5.17,3.84v-9.88l-93.75,2.22-.85,17.41.82,3.8c2.53-2.76,5.65-2.91,8.56-4,0,7.64-.24,14,.06,20.36s1.15,12.52,1.8,19.25c-3.75.61-7.77-.63-11.24-.07v21.13l.52,4.49c2.67,3.11,5.61,5,7.69,8.36.2.33.39.66.56,1h2.12V313H73.4c.84,3.48,0,6.95-3.18,10.18-2,2-5.3,2.21-7.61,3.7l1.19,40.46a19.78,19.78,0,0,0,19.78,19.78H403.09a19.78,19.78,0,0,0,19.77-19.78V331.24H403ZM76.09,376.32H74.17v-4.19h1.92Zm35-42.43-29.49-1.53c-2.59-16.16-2.11-17.9,5.54-19.93V251.91H80.37V233.43l35.56-6.91c-1.93,8.27,3.83,16.7-4.56,23.07-.8.6-.39,2.92-.38,4.44.15,17.38.22,34.75.65,52.12a4.48,4.48,0,0,0,.48,1.81h4.67v5H115a25.2,25.2,0,0,1,1.74,5.08c.61,2.9.92,5.86,1.35,8.8C117.31,330.75,115.41,333.55,111,333.89Zm303.3,33.21h5v5h-5ZM400.21,258.8h9.21v3.84h-9.21ZM206.61,373.1a5.22,5.22,0,0,1-7.47,0,5.26,5.26,0,0,1-1.53-3.78,5.19,5.19,0,0,1,1.53-3.77,5,5,0,0,1,3.73-1.58,5.06,5.06,0,0,1,3.74,1.58,5.43,5.43,0,0,1,0,7.56Zm12.89-6.72a4.89,4.89,0,0,0,3.39,1.18,5.87,5.87,0,0,0,2.22-.51,11.26,11.26,0,0,0,1.17-.5q.39,0,1,2.85a23.23,23.23,0,0,1,.52,3.45c0,.57-.93,1.06-2.79,1.46a16.58,16.58,0,0,1-3.48.47,10.79,10.79,0,0,1-8.14-3.32,12.23,12.23,0,0,1,0-16.55,10.78,10.78,0,0,1,8.13-3.36A11.7,11.7,0,0,1,227.4,353c.39.21.59.41.59.6a23.2,23.2,0,0,1-.67,2.65c-.42,1.51-.7,2.43-.82,2.74s-.26.47-.4.47l-1.36-.36a8.73,8.73,0,0,0-2.16-.36,4.29,4.29,0,0,0-3.19,1.2,4.38,4.38,0,0,0-1.19,3.2A4.16,4.16,0,0,0,219.5,366.38Zm29.33,5.1a12.14,12.14,0,0,1-16.35,0,10.85,10.85,0,0,1-3.19-8.08,11.85,11.85,0,0,1,3.05-8.45,10.79,10.79,0,0,1,8.26-3.25,11.06,11.06,0,0,1,8.22,3.18,12.49,12.49,0,0,1,0,16.55Zm41.65-2.34c0,1.89.07,3.31.07,4.25,0,.53-.22.82-.67.88s-1.56.09-3.32.09a24.29,24.29,0,0,1-3.42-.14c-.44-.09-.67-.45-.67-1.1s0-1.71.07-3.08.07-2.4.07-3.09c0-2.62,0-4.48-.09-5.59-.09-1.78-.94-2.67-2.54-2.67a3.21,3.21,0,0,0-2.1.89,3,3,0,0,0-1.16,2q-.09.94-.09,5.52c0,.7,0,1.77.07,3.2s.07,2.5.07,3.22c0,.5-.22.74-.65.74h-6.8c-.42,0-.63-.3-.63-.92s0-1.76.06-3.16.07-2.47.07-3.19c0-.55,0-1.39,0-2.52s0-2,0-2.53c0-2.14-.81-3.21-2.44-3.21a3.93,3.93,0,0,0-2.14.76c-.84.56-1.25,1.14-1.25,1.75,0,1.36,0,3.4,0,6.11s0,4.73,0,6.08c0,.38,0,.61-.13.7a1.29,1.29,0,0,1-.7.18c-.67.06-1.74.09-3.19.09-.94,0-2-.05-3.21-.14a1.26,1.26,0,0,1-.64-.15,1.28,1.28,0,0,1-.1-.68c0-1.2,0-3,0-5.37s0-4.18,0-5.38a71.51,71.51,0,0,0-.54-8.28,2.93,2.93,0,0,1,0-.41.51.51,0,0,1,.32-.51,7.41,7.41,0,0,1,1.86-.34l2-.2q.22,0,1.77-.48a7.22,7.22,0,0,1,1.77-.31q.44,0,.45,1.56t.18,1.56a2.14,2.14,0,0,0,.52-.31,21.26,21.26,0,0,1,3.19-2.16,8.58,8.58,0,0,1,3.75-.83,7.36,7.36,0,0,1,3.68.92,4.8,4.8,0,0,1,2.35,2.9,9.47,9.47,0,0,1,3.28-2.72,8.74,8.74,0,0,1,4.06-1.1,8,8,0,0,1,4.83,1.37,5.15,5.15,0,0,1,2.11,4.42c0,.8,0,2-.07,3.58s-.06,2.79-.06,3.58Q290.42,366.3,290.48,369.14Zm103.34-36H362.64c0-5.79,0-11.1,0-16.4,0-1,.32-2.78.69-2.83,9.24-1.37,5.59-37.75,4.65-50.16-3.76,18-7.61,36-11.22,54-1,4.95-1.37,10-2,15.06l-.07-.07h-9.83v0h-9.52s-4.66.05-4.68.08c-.62-5.27-4.84-53.42-8.6-72.24-.94,13-4.58,51.05,4.66,52.48.37.06.67,1.93.68,3,.07,5.55,0,11.1,0,17.16H291.7c0-7.62-.17-11.55-.39-19.13,9.63-19.11,4.06-43.7,5-66.77-6.4-1.62-8.54-15-5.37-28.37,13.82-2.31,28.51,2.43,43.08,0l11,57.5c.06-.2.12-.37.18-.56v2.48c3.72-18.52,7.22-35.95,10.91-54.35l42.4,6.78c3.16,12.75,1.7,18.79-4.69,20.33C393.82,278.22,393.82,305.44,393.82,333.1Zm.24-25.14h10.76v3.26H394.06Z"/><path class="cls-1" d="M245.8,216.12v-.43h-8.93l.07.09Z"/><path class="cls-5" d="M63.77,299.31c-.16-.19-.33-.37-.48-.56-3.42,3.69-6,7.2-9.31,9.91-7.75,6.42-16.36,4.87-21.53-3.48-5.73-9.26-3.86-29.8,3.44-37.78,5.63-6.15,13.44-4.65,16.27,3.18.84,2.31,1.44,4.72,2.26,7.43l9.35-1.51"/><path class="cls-5" d="M63.77,237c-4.67.88-8.76,2.4-10.58,8.92-9-5.83-17.09-4.64-25,.56C12.86,256.61,5.28,271.37,2.5,289.07c-2.69,17.09,5.75,34.81,20.2,42.12,12.77,6.46,29,5.1,41.07-2.72"/><path class="cls-5" d="M421.83,333.39h16.44c1.42-16.46,1.42-16.46-7.74-19.28l2.48-6.62c21.63,0,24.16.5,23.29,8.89l-8.91.58v16.6h44.89c0-3.76.32-7.08-.13-10.3-.23-1.64-1.89-4.44-2.82-4.41-5.49.2-5.82-3.72-6.83-7.39-3.77-13.78-9.55-27.33-11-41.34-2.14-20.65-13.51-28.51-32.26-30.23-5.07-.47-10.05-2-16.41-3.53m14.46,44.19,6.14-22.45,1.58.08c1.91,7.82,3.81,15.64,6,24.57Z"/></g></g></svg>