<svg xmlns="http://www.w3.org/2000/svg" viewBox="0 0 494.39 387.22"><defs><style>.cls-1,.cls-3,.cls-4{fill:#fff;}.cls-1,.cls-2{stroke:#000;}.cls-1,.cls-2,.cls-3{stroke-miterlimit:10;}.cls-2{fill:none;}.cls-3{stroke:#1d1d1b;stroke-width:4px;}</style></defs><title>Ativo 1</title><g id="Camada_2" data-name="Camada 2"><g id="Camada_1-2" data-name="Camada 1"><path d="M409.27,41.48,382.19,48.6l-30.71,8.07L325.17,63.6h0l-30.69,8.06-25,6.59-30.7,8.06h0l-25.93,6.82-30.71,8.08-39.57,10.4c-10-10.46-27.82-19.7-47.62-28.66l99.19-26.3,30.72-8.14,25.95-6.88,30.73-8.16,25.06-6.63,30.72-8.15,26.35-7,30.72-8.15L407.73,0,417,33.27C419.24,37,414.82,39.34,409.27,41.48Z"/><polygon class="cls-1" points="224.78 48.51 212.77 93.14 182.06 101.22 194.06 56.65 224.78 48.51"/><polygon class="cls-1" points="281.46 33.47 269.41 78.25 238.72 86.31 250.73 41.63 281.46 33.47"/><polygon class="cls-1" points="337.24 18.7 325.17 63.59 325.15 63.59 294.46 71.66 306.52 26.84 337.24 18.7"/><polygon class="cls-1" points="394.31 3.56 382.19 48.6 351.48 56.67 363.59 11.71 394.31 3.56"/><path d="M427.53,126.28v44H161.39c18.05-4.84,15.37-22.59,0-44Z"/><polygon class="cls-1" points="233.37 169.1 201.43 169.1 177.27 127.24 209.19 127.24 233.37 169.1"/><polygon class="cls-1" points="293.98 169.1 262.03 169.1 237.87 127.24 269.81 127.24 293.98 169.1"/><polygon class="cls-1" points="352.97 169.1 321.04 169.1 296.87 127.24 328.81 127.24 352.97 169.1"/><polygon class="cls-1" points="411.93 169.02 411.79 169.1 380.04 169.1 355.87 127.24 387.81 127.24 411.93 169.02"/><rect x="62.23" y="176.78" width="360.6" height="35.71"/><path d="M416.69,215.69v31h-4.76v-31H249.64v12.16H245.8V215.69H161.39v29.06h-3.54V215.69H63.77v94H74.14v3.46H63.77v54.34a19.77,19.77,0,0,0,19.77,19.77H403.06a19.77,19.77,0,0,0,19.77-19.77V215.69ZM76.06,376.47H74.14v-4.18h1.92Zm40.7-63.36h-5v-5h5Zm93.71-1.92h-7.69v-3.08h7.69Zm40.7,1.92h-3.45v-3.46h3.45Zm153.61-1.73H394v-3.27h10.75Zm4.61-48.58h-9.21V259h9.21Zm9.95,109.49h-5v-5h5Z"/><path d="M168.33,153.12a19.38,19.38,0,0,1-14,17.56,15.33,15.33,0,0,1-2,.46,13.94,13.94,0,0,1-2,.27l-1,.07-1,0-1.92,0c-5.13.11-10.25.23-15.38.28s-10.25.14-15.37.16q-15.37.16-30.75-.19L54.17,171l-.78,0v-.74c.06-3.57.13-7.14.13-10.71s0-7.13,0-10.7q0-10.71-.3-21.41L52.75,106c-.18-7.14-.29-14.27-.38-21.41l0-2,2,.21a247.74,247.74,0,0,1,34.76,5.83A167.62,167.62,0,0,1,106,93.92a135.83,135.83,0,0,1,16.16,7.36,103.11,103.11,0,0,1,27.87,21.8,101,101,0,0,1,10.51,14.22A103.13,103.13,0,0,1,168.33,153.12Zm-.4.06a118.81,118.81,0,0,0-8.87-14.91A98.48,98.48,0,0,0,148,125a108,108,0,0,0-27.73-20.14,130.8,130.8,0,0,0-15.78-6.89,170.82,170.82,0,0,0-16.47-5.16A246.42,246.42,0,0,0,54,86.39l2-1.78c-.09,7.14-.2,14.27-.38,21.41l-.5,21.41c-.17,7.14-.28,14.27-.29,21.41,0,3.57,0,7.13,0,10.7s.07,7.14.13,10.71l-.76-.76,30.74-.79q15.38-.37,30.75-.2,7.68,0,15.37.16c5.13.06,10.25.17,15.38.29a28.19,28.19,0,0,0,7.35-.4,18.13,18.13,0,0,0,6.59-3,19.11,19.11,0,0,0,5-5.41A19.48,19.48,0,0,0,167.93,153.18Z"/><path class="cls-2" d="M168.22,153.35l-.09-.2"/><circle class="cls-2" cx="78.49" cy="149" r="6.66"/><circle class="cls-2" cx="78.49" cy="109.12" r="6.66"/><circle class="cls-2" cx="143.2" cy="149" r="6.66"/><path d="M154.27,144.13a22.31,22.31,0,0,0-3-5.73,44.19,44.19,0,0,0-4.29-4.88,92.6,92.6,0,0,0-9.87-8.45A201.62,201.62,0,0,0,115.19,111c-3.77-2.16-7.63-4.17-11.52-6.12S95.85,101,91.86,99.31s-8-3.31-12.18-4.66A48.91,48.91,0,0,0,67,91.91a44.78,44.78,0,0,1,13,1.8,119.49,119.49,0,0,1,12.49,4.16,189.6,189.6,0,0,1,23.72,11.34A162.54,162.54,0,0,1,138,123.85a81.13,81.13,0,0,1,9.62,9,43.26,43.26,0,0,1,4,5.24A20,20,0,0,1,154.27,144.13Z"/><path d="M60.57,91.9c.2,5.38.3,10.76.38,16.13s.07,10.76.12,16.13,0,10.76-.12,16.13l-.14,8.07c-.08,2.69-.13,5.37-.24,8.06-.12-2.69-.17-5.37-.25-8.06l-.14-8.07c-.08-5.37-.07-10.75-.11-16.13s0-10.75.11-16.13S60.36,97.28,60.57,91.9Z"/><path class="cls-3" d="M217.34,217.42c-2.21,1.18-1.5,7.75-2.2,11.87a6.4,6.4,0,0,1-1.16,1.93l2.5,7.35,6.22,1.28V309.7c-6.27-.6-7.29,3-6.76,8a32.17,32.17,0,0,1,0,7.66c-.89,6.4,2.2,7.72,7.94,7.6,14.83-.31,29.67-.1,44.51-.1h13.59c.78-13.24,1.49-25.25,2.23-37.84-6.21,0-12.78-1.61-17.53.63-2.62,1.25-2.2,8.94-3.16,13.78H247.66V283.72c5.76,0,10.87.35,15.89-.19,1.82-.19,4.73-2.38,4.87-3.88.56-6,.23-12.06.23-18.93h-21V239.07c14.73-1.58,14.92-1.43,18.05,13.51l11.09,2,.58.59,6.8-1.53c-.58-12.09-1.15-23.86-1.77-36.89-6.3,0-12.14.12-18,0-9.16-.23-18.31-.65-27.47-1l-.49-.6a29.74,29.74,0,0,1-4.43.9C227,216.44,221.33,215.29,217.34,217.42Z"/><path class="cls-3" d="M63.29,298.75c-3.42,3.69-6,7.2-9.31,9.91-7.75,6.42-16.36,4.87-21.53-3.48-5.73-9.26-3.86-29.8,3.44-37.78,5.63-6.15,13.44-4.65,16.27,3.18.84,2.31,1.44,4.72,2.26,7.43l20.07-3.25c-.65-6.73-1.5-13-1.8-19.26s-.06-12.71-.06-20.35c-7.66,2.79-16.51.29-19.44,10.81-9-5.83-17.09-4.64-25,.56C12.86,256.61,5.28,271.37,2.5,289.07c-2.69,17.09,5.75,34.81,20.2,42.12,15.21,7.7,35.37,4.29,47.49-7.91,4.57-4.6,4.29-9.69,1.27-14.61C69.25,305.08,66.08,302.08,63.29,298.75Z"/><path class="cls-3" d="M114.81,312.77c-1-2.21-3.15-4.29-3.2-6.47-.44-17.36-.5-34.74-.65-52.11,0-1.52-.42-3.84.38-4.44,8.39-6.37,2.63-14.81,4.56-23.07l-35.56,6.91v18.48h6.72v60.51c-7.65,2-8.13,3.78-5.54,19.93L111,334c4.37-.33,6.26-3.13,7-7.06-.44-2.93-.74-5.9-1.35-8.8A27.11,27.11,0,0,0,114.81,312.77Z"/><path class="cls-3" d="M176.34,219.31c-2.21,17.23-1.34,20,7.22,22.88a393.66,393.66,0,0,1,1,43c-1.33-2-20.24-47.49-26.59-59.4-1-1.86-3.65-4.25-5.32-4.09-9.77.92-19.48,2.53-29.21,3.91v19.19c3.06,1.19,5.91,3.15,5.95,5.16.32,20.62.2,41.26.2,62.2l-5,1-2.21,9.1h0c.83,3.28,1.66,6.56,2.55,10h33.22V312.08l-7.82-1V275.35c1.87,3.37,3.41,5.89,4.71,8.53,7.3,14.87,14.48,29.8,21.89,44.62.89,1.77,2.84,4.13,4.43,4.23,7,.46,14.1.2,21.77.2v-8.71c0-23.25.06-46.5-.2-69.74-.08-7-.07-13.62,6.22-18.29-.55-6.19-1.1-12.38-1.7-19.16Z"/><path class="cls-3" d="M398.49,230.83l-42.4-6.77c-3.69,18.39-7.19,35.83-10.91,54.35v-2.48c-.06.18-.12.36-.18.56L334,219c-14.57,2.44-29.26-2.31-43.08,0-3.17,13.35-1,26.76,5.37,28.37-.93,23.07,4.64,47.66-5,66.78.22,7.57.39,11.51.39,19.12h35.78c0-6.05,0-11.61,0-17.16,0-1-.31-2.9-.68-3-9.24-1.43-5.6-39.51-4.66-52.49,3.76,18.82,8,67,8.6,72.24,0,0,4.66-.05,4.68-.07h9.52v0h9.82l.08.07c.61-5,1-10.11,2-15.06,3.61-18,7.46-36,11.22-54,.94,12.4,4.59,48.78-4.66,50.15-.37.06-.67,1.85-.68,2.83-.06,5.31,0,10.62,0,16.4h31.18c0-27.66,0-54.87,0-82.08C400.19,249.62,401.65,243.58,398.49,230.83Z"/><path class="cls-3" d="M492.15,323.26c-.23-1.64-1.89-4.44-2.82-4.41-5.49.2-5.82-3.72-6.83-7.39-3.77-13.78-9.55-27.33-11-41.34-2.14-20.65-13.51-28.51-32.26-30.23-5.6-.51-11.08-2.36-18.44-4,.94,7.46,1.59,13.09,2.39,18.71.27,1.88,1.67,3.9,1.26,5.53-3.94,15.58-8.45,31-12.11,46.65-1.29,5.49-3,8.84-9.38,7.47v19.15h35.31c1.42-16.46,1.42-16.46-7.74-19.28l2.48-6.62c21.63,0,24.16.5,23.29,8.89l-8.91.58v16.6h44.89C492.28,329.8,492.6,326.48,492.15,323.26Zm-54.86-42.71,6.14-22.45,1.58.08c1.91,7.82,3.81,15.64,6,24.57Z"/><path class="cls-4" d="M208.11,369.46a5.23,5.23,0,0,1-1.54,3.8,5,5,0,0,1-3.73,1.57,5,5,0,0,1-3.73-1.59,5.42,5.42,0,0,1,0-7.55,5.22,5.22,0,0,1,7.46,0A5.19,5.19,0,0,1,208.11,369.46Z"/><path class="cls-4" d="M226.07,359.61l-1.36-.36a8.73,8.73,0,0,0-2.16-.36,4.28,4.28,0,0,0-3.19,1.2,4.36,4.36,0,0,0-1.19,3.2,4.13,4.13,0,0,0,1.3,3.24,4.85,4.85,0,0,0,3.39,1.18,6,6,0,0,0,2.22-.5,9.43,9.43,0,0,0,1.17-.51c.26,0,.58.95,1,2.85a23.49,23.49,0,0,1,.52,3.46c0,.57-.93,1.05-2.79,1.46a17.37,17.37,0,0,1-3.48.47,10.87,10.87,0,0,1-8.15-3.32,12.27,12.27,0,0,1,0-16.56,10.83,10.83,0,0,1,8.14-3.35,11.69,11.69,0,0,1,5.88,1.43c.39.21.59.41.59.61a22.65,22.65,0,0,1-.68,2.65c-.42,1.51-.69,2.42-.82,2.74S226.21,359.61,226.07,359.61Z"/><path class="cls-4" d="M251.93,363.33a11.32,11.32,0,0,1-3.13,8.31,12.13,12.13,0,0,1-16.35,0,10.82,10.82,0,0,1-3.19-8.08,11.86,11.86,0,0,1,3.05-8.45,10.81,10.81,0,0,1,8.26-3.24,11.09,11.09,0,0,1,8.22,3.17A11.25,11.25,0,0,1,251.93,363.33Zm-7.36,0a4.86,4.86,0,0,0-1.1-3.13,3.52,3.52,0,0,0-2.85-1.35,3.61,3.61,0,0,0-2.92,1.39,4.68,4.68,0,0,0-1.08,3.09,4.75,4.75,0,0,0,1.08,3.13,3.73,3.73,0,0,0,5.81,0A4.78,4.78,0,0,0,244.57,363.33Z"/><path class="cls-4" d="M290.52,373.55c0,.52-.22.81-.67.87s-1.56.09-3.32.09a25,25,0,0,1-3.42-.13c-.45-.09-.67-.46-.67-1.1s0-1.72.07-3.09.06-2.4.06-3.08c0-2.62,0-4.49-.09-5.59-.09-1.79-.93-2.67-2.53-2.67a3.22,3.22,0,0,0-2.1.88,3,3,0,0,0-1.16,2q-.09.93-.09,5.52c0,.7,0,1.77.07,3.2s.07,2.5.07,3.22c0,.49-.22.74-.65.74h-6.81c-.42,0-.62-.31-.62-.92s0-1.76.06-3.17.07-2.47.07-3.18,0-1.4,0-2.52-.05-2-.05-2.54c0-2.14-.82-3.2-2.45-3.2a3.9,3.9,0,0,0-2.13.76c-.84.55-1.26,1.14-1.26,1.75q0,2,0,6.11t0,6.08a1.09,1.09,0,0,1-.14.69,1.25,1.25,0,0,1-.69.18c-.68.06-1.74.09-3.19.09-.94,0-2,0-3.21-.13-.36,0-.57-.08-.64-.16a1.24,1.24,0,0,1-.1-.67c0-1.2,0-3,0-5.38s0-4.18,0-5.37a71.63,71.63,0,0,0-.53-8.29,2.83,2.83,0,0,1,0-.4.51.51,0,0,1,.32-.52,7.69,7.69,0,0,1,1.86-.34c1.12-.1,1.79-.17,2-.2s.74-.18,1.77-.47a6.7,6.7,0,0,1,1.77-.31q.44,0,.45,1.56t.18,1.56a2.44,2.44,0,0,0,.52-.32,21.3,21.3,0,0,1,3.19-2.15,8.43,8.43,0,0,1,3.74-.83,7.27,7.27,0,0,1,3.69.92,4.78,4.78,0,0,1,2.35,2.89,9.56,9.56,0,0,1,3.28-2.71,8.62,8.62,0,0,1,4.06-1.1,7.9,7.9,0,0,1,4.83,1.37,5.14,5.14,0,0,1,2.11,4.42c0,.79,0,2-.07,3.58s-.06,2.79-.06,3.58,0,2.36.06,4.26S290.52,372.61,290.52,373.55Z"/></g></g></svg>